Patient4_TMGait_0pt2_03_left_07_GRF.mot
version=1
nRows=52
nColumns=19
inDegrees=no
endheader
time	F1x	F1y	F1z	M1x	M1y	M1z	F2x	F2y	F2z	M2x	M2y	M2z	EC1x	EC1y	EC1z	EC2x	EC2y	EC2z
13.79	-5.3619	5.6517	2.8476	-1.6469	-3.8539	2.3504	-22.0696	804.165	-48.7758	279.8891	62.5006	849.6623	-0.0592	0.0182	-0.0073	-0.0462	0.0165	0.9585
13.8116	-3.8369	3.967	2.0053	-1.161	-2.7353	1.7363	-23.3956	819.0651	-47.9438	285.4976	61.7785	866.3255	-0.0592	0.0182	-0.0073	-0.0462	0.0165	0.9585
13.8333	-2.5272	2.5377	1.285	-0.7497	-1.7857	1.2217	-24.6733	833.7332	-46.5808	291.0238	60.4533	882.5185	-0.0592	0.0182	-0.0073	-0.0462	0.0165	0.9585
13.8549	-1.5187	1.4531	0.73432	-0.43808	-1.0671	0.84152	-25.6288	846.1036	-44.7589	295.7041	58.5071	895.8802	-0.0592	0.0182	-0.0073	-0.0462	0.0165	0.9585
13.8766	-0.8176	0.70045	0.35552	-0.22115	-0.58145	0.58024	-25.9735	854.4195	-42.6166	298.897	55.9841	904.4034	-0.0592	0.0182	-0.0073	-0.0462	0.0165	0.9585
13.8982	-0.38618	0.205	0.12365	-0.075373	-0.29579	0.38837	-25.4843	857.6196	-40.3053	300.2254	52.9675	906.8564	-0.0592	0.0182	-0.0073	-0.0462	0.0165	0.9585
13.9199	-0.16867	-0.13876	0.0026883	0.032237	-0.16282	0.19734	-24.0509	855.4871	-37.9591	299.6308	49.5687	902.9416	-0.0592	0.0182	-0.0073	-0.0462	0.0165	0.9585
13.9415	-0.10696	-0.45064	-0.043961	0.13903	-0.13297	-0.07188	-21.6632	848.6137	-35.6849	297.3542	45.9136	893.2532	-0.0592	0.0182	-0.0073	-0.0462	0.0165	0.9585
13.9631	-0.14764	-0.85144	-0.047063	0.28227	-0.1638	-0.50796	-18.38	838.1874	-33.5464	293.8529	42.1093	879.0527	-0.0592	0.0182	-0.0073	-0.0462	0.0165	0.9585
13.9848	-0.24575	-1.4466	-0.033742	0.49557	-0.21811	-1.1978	-14.3207	825.6261	-31.5732	289.6599	38.2433	861.8921	-0.0592	0.0182	-0.0073	-0.0462	0.0165	0.9585
14.0064	-0.36434	-2.3111	-0.029034	0.80429	-0.2616	-2.2068	-9.652	812.2009	-29.802	285.2391	34.417	843.2226	-0.0592	0.0182	-0.0073	-0.0462	0.0165	0.9585
14.0281	-0.46968	-3.4724	-0.056425	1.2168	-0.26217	-3.5541	-4.5838	798.7539	-28.303	280.8785	30.7688	824.1038	-0.0592	0.0182	-0.0073	-0.0462	0.0165	0.9585
14.0497	-0.52708	-4.8774	-0.13642	1.7119	-0.18612	-5.1726	0.61025	785.5993	-27.1816	276.6572	27.481	805.1049	-0.0592	0.0182	-0.0073	-0.0462	0.0165	0.9585
14.0714	-0.5002	-6.3487	-0.28536	2.2244	-0.0010831	-6.8665	5.5784	772.6477	-26.5648	272.4993	24.7813	786.4069	-0.0592	0.0182	-0.0073	-0.0462	0.0165	0.9585
14.093	-0.34933	-7.5351	-0.51565	2.6289	0.3228	-8.2555	9.9805	759.7602	-26.5584	268.31	22.8811	768.1152	-0.0592	0.0182	-0.0073	-0.0462	0.0165	0.9585
14.1146	-0.033456	-7.8612	-0.82623	2.7199	0.80219	-8.7057	13.5886	747.0351	-27.2106	264.0876	21.9087	750.5057	-0.0592	0.0182	-0.0073	-0.0462	0.0165	0.9585
14.1363	0.48835	-6.4873	-1.1936	2.1975	1.4244	-7.278	16.3057	734.8348	-28.4962	259.9405	21.8847	734.0189	-0.0592	0.0182	-0.0073	-0.0462	0.0165	0.9585
14.1579	1.244	-2.3045	-1.5607	0.66592	2.13	-2.7344	18.1693	723.6837	-30.3241	256.0514	22.7212	719.16	-0.0592	0.0182	-0.0073	-0.0462	0.0165	0.9585
14.1796	2.2267	6.0091	-1.8259	-2.3427	2.7962	6.4025	19.2987	713.9948	-32.548	252.5754	24.2477	706.265	-0.0592	0.0182	-0.0073	-0.0462	0.0165	0.9585
14.2012	3.3639	19.8324	-1.8273	-7.3088	3.2094	21.6847	19.8153	705.7124	-34.973	249.5091	26.2402	695.2028	-0.0592	0.0182	-0.0073	-0.0462	0.0165	0.9585
14.2229	4.4804	40.2848	-1.3294	-14.6131	3.0368	44.3899	19.7873	698.066	-37.3619	246.6006	28.4426	685.1794	-0.0592	0.0182	-0.0073	-0.0462	0.0165	0.9585
14.2445	5.2577	67.7073	-0.025042	-24.3515	1.8155	74.9468	19.2003	689.5064	-39.4315	243.3272	30.5763	674.6905	-0.0592	0.0182	-0.0073	-0.0462	0.0165	0.9585
14.2661	5.2056	100.9087	2.4388	-36.0679	-1.0311	112.0989	17.9908	677.9954	-40.8789	238.9945	32.3587	661.7877	-0.0592	0.0182	-0.0073	-0.0462	0.0165	0.9585
14.2878	3.8724	136.507	6.3099	-48.528	-5.9376	152.173	16.1407	661.7322	-41.4737	232.9874	33.5608	644.734	-0.0592	0.0182	-0.0073	-0.0462	0.0165	0.9585
14.3094	1.4668	170.2085	11.2272	-60.2081	-12.403	190.4347	13.7992	640.0522	-41.1765	225.0812	34.0852	622.8189	-0.0592	0.0182	-0.0073	-0.0462	0.0165	0.9585
14.3311	-1.4815	199.6566	16.2872	-70.3184	-19.2131	224.1936	11.304	613.7802	-40.1664	215.5655	33.9846	596.695	-0.0592	0.0182	-0.0073	-0.0462	0.0165	0.9585
14.3527	-4.54	224.7388	20.6974	-78.874	-25.3191	253.2073	9.0263	584.6826	-38.6975	205.0653	33.3764	567.9102	-0.0592	0.0182	-0.0073	-0.0462	0.0165	0.9585
14.3744	-7.4573	246.362	24.019	-86.2386	-30.1329	278.3544	7.2048	554.7424	-36.9716	194.2929	32.3766	538.2692	-0.0592	0.0182	-0.0073	-0.0462	0.0165	0.9585
14.396	-10.0175	265.6679	26.2363	-92.8324	-33.5497	300.7592	5.9017	525.6743	-35.1509	183.8701	31.1233	509.3738	-0.0592	0.0182	-0.0073	-0.0462	0.0165	0.9585
14.4176	-11.9973	283.661	27.6173	-99.0056	-35.7785	321.3957	5.0408	498.668	-33.3875	174.229	29.7891	482.3603	-0.0592	0.0182	-0.0073	-0.0462	0.0165	0.9585
14.4393	-13.2722	300.8746	28.459	-104.9386	-37.1018	340.7556	4.4785	474.3524	-31.7875	165.6012	28.5256	457.8557	-0.0592	0.0182	-0.0073	-0.0462	0.0165	0.9585
14.4609	-13.8423	317.5082	28.9329	-110.6973	-37.7182	359.0177	4.0836	452.9027	-30.384	158.0553	27.4125	436.0659	-0.0592	0.0182	-0.0073	-0.0462	0.0165	0.9585
14.4826	-13.8355	333.7462	29.1371	-116.3386	-37.7945	376.4031	3.7873	434.1333	-29.1542	151.527	26.4556	416.8494	-0.0592	0.0182	-0.0073	-0.0462	0.0165	0.9585
14.5042	-13.4367	349.8659	29.1472	-121.9441	-37.4927	393.2681	3.5936	417.5672	-28.0419	145.8431	25.6024	399.7787	-0.0592	0.0182	-0.0073	-0.0462	0.0165	0.9585
14.5259	-12.8187	366.2205	29.0404	-127.6161	-36.9692	410.0462	3.551	402.5022	-26.9836	140.7438	24.7725	384.2036	-0.0592	0.0182	-0.0073	-0.0462	0.0165	0.9585
14.5475	-12.1078	383.1756	28.9371	-133.4639	-36.4046	427.1524	3.7206	388.0312	-25.9403	135.8892	23.8946	369.2846	-0.0592	0.0182	-0.0073	-0.0462	0.0165	0.9585
14.5691	-11.334	401.0755	28.9992	-139.5998	-35.9836	444.9198	4.1471	373.1241	-24.9003	130.894	22.925	354.0692	-0.0592	0.0182	-0.0073	-0.0462	0.0165	0.9585
14.5908	-10.4228	420.2459	29.3593	-146.1482	-35.8173	463.6102	4.8467	356.8076	-23.8563	125.394	21.8356	337.656	-0.0592	0.0182	-0.0073	-0.0462	0.0165	0.9585
14.6124	-9.2544	440.9247	30.0609	-153.219	-35.9049	483.3896	5.8068	338.3109	-22.7878	119.1017	20.606	319.332	-0.0592	0.0182	-0.0073	-0.0462	0.0165	0.9585
14.6341	-7.7538	463.141	31.0751	-160.8548	-36.1855	504.2602	6.9632	317.1484	-21.6557	111.8371	19.2205	298.6552	-0.0592	0.0182	-0.0073	-0.0462	0.0165	0.9585
14.6557	-5.9393	486.6772	32.3325	-169.0043	-36.5943	526.0489	8.1979	293.1331	-20.4107	103.5309	17.6722	275.4696	-0.0592	0.0182	-0.0073	-0.0462	0.0165	0.9585
14.6774	-3.9338	511.194	33.7595	-177.5567	-37.104	548.5413	9.3427	266.3465	-19.007	94.2132	15.9731	249.8674	-0.0592	0.0182	-0.0073	-0.0462	0.0165	0.9585
14.699	-1.9344	536.3938	35.3188	-186.3936	-37.7482	571.6222	10.2012	237.1206	-17.4168	84.0041	14.1605	222.1685	-0.0592	0.0182	-0.0073	-0.0462	0.0165	0.9585
14.7206	-0.15952	562.1525	37.0363	-195.4395	-38.6288	595.3617	10.5839	206.057	-15.641	73.1178	12.2975	192.9318	-0.0592	0.0182	-0.0073	-0.0462	0.0165	0.9585
14.7423	1.2083	588.5483	38.9864	-204.6841	-39.8827	619.9879	10.3636	174.0484	-13.7203	61.8689	10.4703	162.9676	-0.0592	0.0182	-0.0073	-0.0462	0.0165	0.9585
14.7639	2.0726	615.7337	41.2507	-214.1533	-41.6245	645.7212	9.5284	142.2665	-11.738	50.6674	8.7676	133.3205	-0.0592	0.0182	-0.0073	-0.0462	0.0165	0.9585
14.7856	2.4151	643.7463	43.8857	-223.8502	-43.9186	672.593	8.1896	112.0467	-9.7955	39.9828	7.2551	105.1779	-0.0592	0.0182	-0.0073	-0.0462	0.0165	0.9585
14.8072	2.2387	672.3451	46.9038	-233.6946	-46.7797	700.319	6.5358	84.6472	-7.9657	30.2634	5.9476	79.6636	-0.0592	0.0182	-0.0073	-0.0462	0.0165	0.9585
14.8289	1.5481	700.9822	50.2749	-243.5056	-50.1764	728.293	4.7587	60.985	-6.271	21.8434	4.8131	57.6031	-0.0592	0.0182	-0.0073	-0.0462	0.0165	0.9585
14.8505	0.34727	729.0357	53.9296	-253.0792	-54.0302	755.8319	3.0273	41.5284	-4.7138	14.8999	3.8053	39.4277	-0.0592	0.0182	-0.0073	-0.0462	0.0165	0.9585
14.8721	-1.3504	756.1642	57.7562	-262.3108	-58.2102	782.5275	1.5058	26.3384	-3.3152	9.4643	2.8931	25.2042	-0.0592	0.0182	-0.0073	-0.0462	0.0165	0.9585
14.8938	-3.5003	782.3836	61.6115	-271.2214	-62.5377	808.3138	0.33834	15.1699	-2.1219	5.4564	2.0739	14.7194	-0.0592	0.0182	-0.0073	-0.0462	0.0165	0.9585
